<svg xmlns="http://www.w3.org/2000/svg" width="160.553" height="73.933" viewBox="0 0 160.553 73.933">
  <g id="Group_161" data-name="Group 161" transform="translate(-33.058 -19.741)">
    <path id="Path_2485" data-name="Path 2485" d="M36.4,21.413a1.672,1.672,0,1,1-1.672-1.672A1.671,1.671,0,0,1,36.4,21.413Z" fill="#5d5ae0"/>
    <path id="Path_2486" data-name="Path 2486" d="M52.123,21.413a1.672,1.672,0,1,1-1.672-1.672A1.672,1.672,0,0,1,52.123,21.413Z" fill="#5d5ae0"/>
    <path id="Path_2487" data-name="Path 2487" d="M67.844,21.413a1.672,1.672,0,1,1-1.672-1.672A1.672,1.672,0,0,1,67.844,21.413Z" fill="#5d5ae0"/>
    <path id="Path_2488" data-name="Path 2488" d="M83.565,21.413a1.672,1.672,0,1,1-1.672-1.672A1.672,1.672,0,0,1,83.565,21.413Z" fill="#5d5ae0"/>
    <path id="Path_2489" data-name="Path 2489" d="M99.286,21.413a1.672,1.672,0,1,1-1.672-1.672A1.672,1.672,0,0,1,99.286,21.413Z" fill="#5d5ae0"/>
    <path id="Path_2490" data-name="Path 2490" d="M115.007,21.413a1.672,1.672,0,1,1-1.672-1.672A1.672,1.672,0,0,1,115.007,21.413Z" fill="#5d5ae0"/>
    <path id="Path_2491" data-name="Path 2491" d="M130.728,21.413a1.672,1.672,0,1,1-1.672-1.672A1.672,1.672,0,0,1,130.728,21.413Z" fill="#5d5ae0"/>
    <path id="Path_2492" data-name="Path 2492" d="M146.448,21.413a1.672,1.672,0,1,1-1.672-1.672A1.671,1.671,0,0,1,146.448,21.413Z" fill="#5d5ae0"/>
    <path id="Path_2493" data-name="Path 2493" d="M162.169,21.413a1.672,1.672,0,1,1-1.672-1.672A1.671,1.671,0,0,1,162.169,21.413Z" fill="#5d5ae0"/>
    <path id="Path_2494" data-name="Path 2494" d="M177.89,21.413a1.672,1.672,0,1,1-1.672-1.672A1.671,1.671,0,0,1,177.89,21.413Z" fill="#5d5ae0"/>
    <path id="Path_2495" data-name="Path 2495" d="M193.611,21.413a1.672,1.672,0,1,1-1.672-1.672A1.671,1.671,0,0,1,193.611,21.413Z" fill="#5d5ae0"/>
    <path id="Path_2496" data-name="Path 2496" d="M36.4,35.531a1.672,1.672,0,1,1-1.672-1.672A1.672,1.672,0,0,1,36.4,35.531Z" fill="#5d5ae0"/>
    <path id="Path_2497" data-name="Path 2497" d="M52.123,35.531a1.672,1.672,0,1,1-1.672-1.672A1.673,1.673,0,0,1,52.123,35.531Z" fill="#5d5ae0"/>
    <path id="Path_2498" data-name="Path 2498" d="M67.844,35.531a1.672,1.672,0,1,1-1.672-1.672A1.673,1.673,0,0,1,67.844,35.531Z" fill="#5d5ae0"/>
    <path id="Path_2499" data-name="Path 2499" d="M83.565,35.531a1.672,1.672,0,1,1-1.672-1.672A1.673,1.673,0,0,1,83.565,35.531Z" fill="#5d5ae0"/>
    <path id="Path_2500" data-name="Path 2500" d="M99.286,35.531a1.672,1.672,0,1,1-1.672-1.672A1.673,1.673,0,0,1,99.286,35.531Z" fill="#5d5ae0"/>
    <path id="Path_2501" data-name="Path 2501" d="M115.007,35.531a1.672,1.672,0,1,1-1.672-1.672A1.673,1.673,0,0,1,115.007,35.531Z" fill="#5d5ae0"/>
    <path id="Path_2502" data-name="Path 2502" d="M130.728,35.531a1.672,1.672,0,1,1-1.672-1.672A1.673,1.673,0,0,1,130.728,35.531Z" fill="#5d5ae0"/>
    <path id="Path_2503" data-name="Path 2503" d="M146.448,35.531a1.672,1.672,0,1,1-1.672-1.672A1.672,1.672,0,0,1,146.448,35.531Z" fill="#5d5ae0"/>
    <path id="Path_2504" data-name="Path 2504" d="M162.169,35.531a1.672,1.672,0,1,1-1.672-1.672A1.672,1.672,0,0,1,162.169,35.531Z" fill="#5d5ae0"/>
    <path id="Path_2505" data-name="Path 2505" d="M177.89,35.531a1.672,1.672,0,1,1-1.672-1.672A1.672,1.672,0,0,1,177.89,35.531Z" fill="#5d5ae0"/>
    <path id="Path_2506" data-name="Path 2506" d="M193.611,35.531a1.672,1.672,0,1,1-1.672-1.672A1.672,1.672,0,0,1,193.611,35.531Z" fill="#5d5ae0"/>
    <path id="Path_2507" data-name="Path 2507" d="M36.4,49.648a1.672,1.672,0,1,1-1.672-1.671A1.671,1.671,0,0,1,36.4,49.648Z" fill="#5d5ae0"/>
    <path id="Path_2508" data-name="Path 2508" d="M52.123,49.648a1.672,1.672,0,1,1-1.672-1.671A1.672,1.672,0,0,1,52.123,49.648Z" fill="#5d5ae0"/>
    <path id="Path_2509" data-name="Path 2509" d="M67.844,49.648a1.672,1.672,0,1,1-1.672-1.671A1.672,1.672,0,0,1,67.844,49.648Z" fill="#5d5ae0"/>
    <path id="Path_2510" data-name="Path 2510" d="M83.565,49.648a1.672,1.672,0,1,1-1.672-1.671A1.672,1.672,0,0,1,83.565,49.648Z" fill="#5d5ae0"/>
    <path id="Path_2511" data-name="Path 2511" d="M99.286,49.648a1.672,1.672,0,1,1-1.672-1.671A1.672,1.672,0,0,1,99.286,49.648Z" fill="#5d5ae0"/>
    <path id="Path_2512" data-name="Path 2512" d="M115.007,49.648a1.672,1.672,0,1,1-1.672-1.671A1.672,1.672,0,0,1,115.007,49.648Z" fill="#5d5ae0"/>
    <path id="Path_2513" data-name="Path 2513" d="M130.728,49.648a1.672,1.672,0,1,1-1.672-1.671A1.672,1.672,0,0,1,130.728,49.648Z" fill="#5d5ae0"/>
    <path id="Path_2514" data-name="Path 2514" d="M146.448,49.648a1.672,1.672,0,1,1-1.672-1.671A1.671,1.671,0,0,1,146.448,49.648Z" fill="#5d5ae0"/>
    <path id="Path_2515" data-name="Path 2515" d="M162.169,49.648a1.672,1.672,0,1,1-1.672-1.671A1.671,1.671,0,0,1,162.169,49.648Z" fill="#5d5ae0"/>
    <path id="Path_2516" data-name="Path 2516" d="M177.89,49.648a1.672,1.672,0,1,1-1.672-1.671A1.671,1.671,0,0,1,177.89,49.648Z" fill="#5d5ae0"/>
    <path id="Path_2517" data-name="Path 2517" d="M193.611,49.648a1.672,1.672,0,1,1-1.672-1.671A1.671,1.671,0,0,1,193.611,49.648Z" fill="#5d5ae0"/>
    <circle id="Ellipse_13" data-name="Ellipse 13" cx="1.672" cy="1.672" r="1.672" transform="translate(33.058 62.094)" fill="#5d5ae0"/>
    <circle id="Ellipse_14" data-name="Ellipse 14" cx="1.672" cy="1.672" r="1.672" transform="translate(48.779 62.094)" fill="#5d5ae0"/>
    <path id="Path_2518" data-name="Path 2518" d="M67.844,63.766a1.672,1.672,0,1,1-1.672-1.672A1.672,1.672,0,0,1,67.844,63.766Z" fill="#5d5ae0"/>
    <circle id="Ellipse_15" data-name="Ellipse 15" cx="1.672" cy="1.672" r="1.672" transform="translate(80.221 62.094)" fill="#5d5ae0"/>
    <circle id="Ellipse_16" data-name="Ellipse 16" cx="1.672" cy="1.672" r="1.672" transform="translate(95.942 62.094)" fill="#5d5ae0"/>
    <circle id="Ellipse_17" data-name="Ellipse 17" cx="1.672" cy="1.672" r="1.672" transform="translate(111.663 62.094)" fill="#5d5ae0"/>
    <circle id="Ellipse_18" data-name="Ellipse 18" cx="1.672" cy="1.672" r="1.672" transform="translate(127.384 62.094)" fill="#5d5ae0"/>
    <circle id="Ellipse_19" data-name="Ellipse 19" cx="1.672" cy="1.672" r="1.672" transform="translate(143.105 62.094)" fill="#5d5ae0"/>
    <circle id="Ellipse_20" data-name="Ellipse 20" cx="1.672" cy="1.672" r="1.672" transform="translate(158.825 62.094)" fill="#5d5ae0"/>
    <path id="Path_2519" data-name="Path 2519" d="M177.89,63.766a1.672,1.672,0,1,1-1.672-1.672A1.671,1.671,0,0,1,177.89,63.766Z" fill="#5d5ae0"/>
    <path id="Path_2520" data-name="Path 2520" d="M193.611,63.766a1.672,1.672,0,1,1-1.672-1.672A1.671,1.671,0,0,1,193.611,63.766Z" fill="#5d5ae0"/>
    <circle id="Ellipse_21" data-name="Ellipse 21" cx="1.672" cy="1.672" r="1.672" transform="translate(33.058 76.212)" fill="#5d5ae0"/>
    <circle id="Ellipse_22" data-name="Ellipse 22" cx="1.672" cy="1.672" r="1.672" transform="translate(48.779 76.212)" fill="#5d5ae0"/>
    <path id="Path_2521" data-name="Path 2521" d="M67.844,77.884a1.672,1.672,0,1,1-1.672-1.672A1.673,1.673,0,0,1,67.844,77.884Z" fill="#5d5ae0"/>
    <circle id="Ellipse_23" data-name="Ellipse 23" cx="1.672" cy="1.672" r="1.672" transform="translate(80.221 76.212)" fill="#5d5ae0"/>
    <circle id="Ellipse_24" data-name="Ellipse 24" cx="1.672" cy="1.672" r="1.672" transform="translate(95.942 76.212)" fill="#5d5ae0"/>
    <circle id="Ellipse_25" data-name="Ellipse 25" cx="1.672" cy="1.672" r="1.672" transform="translate(111.663 76.212)" fill="#5d5ae0"/>
    <circle id="Ellipse_26" data-name="Ellipse 26" cx="1.672" cy="1.672" r="1.672" transform="translate(127.384 76.212)" fill="#5d5ae0"/>
    <circle id="Ellipse_27" data-name="Ellipse 27" cx="1.672" cy="1.672" r="1.672" transform="translate(143.105 76.212)" fill="#5d5ae0"/>
    <circle id="Ellipse_28" data-name="Ellipse 28" cx="1.672" cy="1.672" r="1.672" transform="translate(158.825 76.212)" fill="#5d5ae0"/>
    <path id="Path_2522" data-name="Path 2522" d="M177.89,77.884a1.672,1.672,0,1,1-1.672-1.672A1.672,1.672,0,0,1,177.89,77.884Z" fill="#5d5ae0"/>
    <path id="Path_2523" data-name="Path 2523" d="M193.611,77.884a1.672,1.672,0,1,1-1.672-1.672A1.672,1.672,0,0,1,193.611,77.884Z" fill="#5d5ae0"/>
    <circle id="Ellipse_29" data-name="Ellipse 29" cx="1.672" cy="1.672" r="1.672" transform="translate(33.058 90.329)" fill="#5d5ae0"/>
    <circle id="Ellipse_30" data-name="Ellipse 30" cx="1.672" cy="1.672" r="1.672" transform="translate(48.779 90.329)" fill="#5d5ae0"/>
    <path id="Path_2524" data-name="Path 2524" d="M67.844,92a1.672,1.672,0,1,1-1.672-1.673A1.673,1.673,0,0,1,67.844,92Z" fill="#5d5ae0"/>
    <circle id="Ellipse_31" data-name="Ellipse 31" cx="1.672" cy="1.672" r="1.672" transform="translate(80.221 90.33)" fill="#5d5ae0"/>
    <circle id="Ellipse_32" data-name="Ellipse 32" cx="1.672" cy="1.672" r="1.672" transform="translate(95.942 90.329)" fill="#5d5ae0"/>
    <circle id="Ellipse_33" data-name="Ellipse 33" cx="1.672" cy="1.672" r="1.672" transform="translate(111.663 90.329)" fill="#5d5ae0"/>
    <circle id="Ellipse_34" data-name="Ellipse 34" cx="1.672" cy="1.672" r="1.672" transform="translate(127.384 90.329)" fill="#5d5ae0"/>
    <circle id="Ellipse_35" data-name="Ellipse 35" cx="1.672" cy="1.672" r="1.672" transform="translate(143.105 90.329)" fill="#5d5ae0"/>
    <circle id="Ellipse_36" data-name="Ellipse 36" cx="1.672" cy="1.672" r="1.672" transform="translate(158.825 90.329)" fill="#5d5ae0"/>
    <path id="Path_2525" data-name="Path 2525" d="M177.89,92a1.672,1.672,0,1,1-1.672-1.673A1.672,1.672,0,0,1,177.89,92Z" fill="#5d5ae0"/>
    <path id="Path_2526" data-name="Path 2526" d="M193.611,92a1.672,1.672,0,1,1-1.672-1.673A1.672,1.672,0,0,1,193.611,92Z" fill="#5d5ae0"/>
  </g>
</svg>
